<svg width="100%" height="100%" viewBox="0 0 825 962"
     xmlns="http://www.w3.org/2000/svg" 
     xmlns:xlink="http://www.w3.org/1999/xlink">

  <desc>
    Balloons Symbol
    
    Created the balloons as symbol for reuse
    
    Original work: https://openclipart.org/detail/297987/balloons
    
    Jay Nick
    steamcoded.org
  </desc>

  <defs>
    <radialGradient id="Gradient_4" gradientUnits="userSpaceOnUse" cx="420.208" cy="346.897" r="21.1">
      <stop offset="0" stop-color="#B1DEF4"/>
      <stop offset="1" stop-color="#10A7CE"/>
    </radialGradient>
    <radialGradient id="Gradient_5" gradientUnits="userSpaceOnUse" cx="385.794" cy="98.971" r="165.234">
      <stop offset="0" stop-color="#B1DEF4"/>
      <stop offset="1" stop-color="#10A7CE"/>
    </radialGradient>
    <radialGradient id="Gradient_6" gradientUnits="userSpaceOnUse" cx="154.649" cy="435.464" r="21.1">
      <stop offset="0" stop-color="#F7B6D3"/>
      <stop offset="1" stop-color="#FF5D73"/>
    </radialGradient>
    <radialGradient id="Gradient_7" gradientUnits="userSpaceOnUse" cx="120.117" cy="187.538" r="165.234">
      <stop offset="0" stop-color="#F7B6D3"/>
      <stop offset="1" stop-color="#FF5D73"/>
    </radialGradient>
    <radialGradient id="Gradient_8" gradientUnits="userSpaceOnUse" cx="660.417" cy="435.464" r="21.1">
      <stop offset="0" stop-color="#F7AEB4"/>
      <stop offset="1" stop-color="#F60012"/>
    </radialGradient>
    <radialGradient id="Gradient_9" gradientUnits="userSpaceOnUse" cx="625.885" cy="187.538" r="165.234">
      <stop offset="0" stop-color="#F7AEB4"/>
      <stop offset="1" stop-color="#F60012"/>
    </radialGradient>
    <radialGradient id="Gradient_10" gradientUnits="userSpaceOnUse" cx="283.389" cy="577.779" r="21.1">
      <stop offset="0" stop-color="#FBDEAD"/>
      <stop offset="1" stop-color="#FF9800"/>
    </radialGradient>
    <radialGradient id="Gradient_11" gradientUnits="userSpaceOnUse" cx="213.711" cy="337.353" r="165.234">
      <stop offset="0" stop-color="#FBDEAD"/>
      <stop offset="1" stop-color="#FF9800"/>
    </radialGradient>
    <linearGradient id="Gradient_12" gradientUnits="userSpaceOnUse" x1="395.946" y1="909.607" x2="398.861" y2="889.309">
      <stop offset="0" stop-color="#FF1F19"/>
      <stop offset="1" stop-color="#B7282C"/>
    </linearGradient>
    <linearGradient id="Gradient_13" gradientUnits="userSpaceOnUse" x1="364.412" y1="920.811" x2="381.882" y2="898.882">
      <stop offset="0" stop-color="#FF1F19"/>
      <stop offset="1" stop-color="#B7282C"/>
    </linearGradient>
    <linearGradient id="Gradient_14" gradientUnits="userSpaceOnUse" x1="400.103" y1="884.014" x2="414.327" y2="886.432">
      <stop offset="0" stop-color="#FF1F19"/>
      <stop offset="1" stop-color="#B7282C"/>
    </linearGradient>
    <linearGradient id="Gradient_15" gradientUnits="userSpaceOnUse" x1="401.529" y1="-883.029" x2="418.355" y2="-884.721" gradientTransform="matrix(1, 0, 0, -1, 0, 0)">
      <stop offset="0" stop-color="#AF2525"/>
      <stop offset="1" stop-color="#90282C"/>
    </linearGradient>
    <clipPath id="Clip_1">
      <path d="M408.16 886.73c2.63 0.16 5.1-0.27 7.57-1.06 3.52-1.3 2.99-1.72 1.65-1.82l0 0 0.21-2.29c-2.74 0.34-5.51-0.08-8.21-0.56l0 0c1.75 0.6 3.93 1.12 4.79 2.94-0.02 0-0.03 0-0.03 0 0 0-3.11 3.22-12.86 1.6 2.22 0.78 4.56 0.96 6.88 1.19z"/>
    </clipPath>
    <linearGradient id="Gradient_16" gradientUnits="userSpaceOnUse" x1="406.53" y1="880.516" x2="409.403" y2="880.805">
      <stop offset="0" stop-color="#AF2525"/>
      <stop offset="1" stop-color="#90282C"/>
    </linearGradient>
    <linearGradient id="Gradient_17" gradientUnits="userSpaceOnUse" x1="452.2" y1="905.456" x2="444.604" y2="892.921">
      <stop offset="0" stop-color="#FF1F19"/>
      <stop offset="1" stop-color="#B7282C"/>
    </linearGradient>
    <linearGradient id="Gradient_18" gradientUnits="userSpaceOnUse" x1="462.254" y1="893.729" x2="456.459" y2="887.924">
      <stop offset="0" stop-color="#FF1F19"/>
      <stop offset="1" stop-color="#B7282C"/>
    </linearGradient>
    <linearGradient id="Gradient_19" gradientUnits="userSpaceOnUse" x1="446.135" y1="882.916" x2="429.775" y2="883.616">
      <stop offset="0" stop-color="#FF1F19"/>
      <stop offset="1" stop-color="#B7282C"/>
    </linearGradient>
    <linearGradient id="Gradient_20" gradientUnits="userSpaceOnUse" x1="443.248" y1="-882.928" x2="426.452" y2="-884.649" gradientTransform="matrix(1, 0, 0, -1, 0, 0)">
      <stop offset="0" stop-color="#AF2525"/>
      <stop offset="1" stop-color="#90282C"/>
    </linearGradient>
    <clipPath id="Clip_2">
      <path d="M436.63 886.65c2.32-0.16 4.66-0.45 6.88-1.19-3.99 0.52-9.46 1.2-12.88-1.55 0 0-0.01 0.01-0.03 0 0.38-1.36 2.78-2.34 4.78-2.94-5.2 1.07-8.18 0.51-8.18 0.51l0.23 2.22 0.01 0.01c-1.35 0.13-1.9 0.59 1.62 1.88 2.44 0.98 4.99 0.96 7.57 1.06z"/>
    </clipPath>
    <linearGradient id="Gradient_21" gradientUnits="userSpaceOnUse" x1="438.234" y1="880.485" x2="435.361" y2="880.78">
      <stop offset="0" stop-color="#AF2525"/>
      <stop offset="1" stop-color="#90282C"/>
    </linearGradient>
    <radialGradient id="Gradient_22" gradientUnits="userSpaceOnUse" cx="421.086" cy="879.306" r="5.828">
      <stop offset="0" stop-color="#E61F19"/>
      <stop offset="0.988" stop-color="#9E282C"/>
      <stop offset="1" stop-color="#9E282C"/>
    </radialGradient>
    <radialGradient id="Gradient_23" gradientUnits="userSpaceOnUse" cx="146.832" cy="-316.119" r="53.614" gradientTransform="matrix(1, 0, 0, -1, 0, 0)">
      <stop offset="0" stop-color="#FFFFFF"/>
      <stop offset="1" stop-color="#FFFFFF" stop-opacity="0.001"/>
    </radialGradient>
    <radialGradient id="Gradient_24" gradientUnits="userSpaceOnUse" cx="55.175" cy="-176.464" r="53.614" gradientTransform="matrix(1, 0, 0, -1, 0, 0)">
      <stop offset="0" stop-color="#FFFFFF"/>
      <stop offset="1" stop-color="#FFFFFF" stop-opacity="0.001"/>
    </radialGradient>
    <radialGradient id="Gradient_25" gradientUnits="userSpaceOnUse" cx="565.531" cy="-165.113" r="53.614" gradientTransform="matrix(1, 0, 0, -1, 0, 0)">
      <stop offset="0" stop-color="#FFFFFF"/>
      <stop offset="1" stop-color="#FFFFFF" stop-opacity="0.001"/>
    </radialGradient>
    <radialGradient id="Gradient_26" gradientUnits="userSpaceOnUse" cx="333.47" cy="-63.138" r="53.614" gradientTransform="matrix(1, 0, 0, -1, 0, 0)">
      <stop offset="0" stop-color="#FFFFFF"/>
      <stop offset="1" stop-color="#FFFFFF" stop-opacity="0.001"/>
    </radialGradient>
    <radialGradient id="Gradient_27" gradientUnits="userSpaceOnUse" cx="536.581" cy="578.032" r="21.1">
      <stop offset="0" stop-color="#C0E7C7"/>
      <stop offset="1" stop-color="#229614"/>
    </radialGradient>
    <radialGradient id="Gradient_28" gradientUnits="userSpaceOnUse" cx="553.574" cy="328.29" r="165.234">
      <stop offset="0" stop-color="#C0E7C7"/>
      <stop offset="1" stop-color="#229614"/>
    </radialGradient>
    <radialGradient id="Gradient_29" gradientUnits="userSpaceOnUse" cx="488.812" cy="-304.626" r="53.614" gradientTransform="matrix(1, 0, 0, -1, 0, 0)">
      <stop offset="0" stop-color="#FFFFFF"/>
      <stop offset="1" stop-color="#FFFFFF" stop-opacity="0.001"/>
    </radialGradient>

    <symbol id="balloons" viewBox="0 0 825 962">
      <g style="fill:none;stroke:#ECCB78;stroke-width:4.069;stroke-linecap:round;stroke-linejoin:round;">
        <path d="M291.13 584.61l131.28 304.63 117.97-299.98"/>
        <path d="M426.95 357.75l-4.54 531.49"/>
        <path d="M158.17 411.35l263.54 477.89 245.39-486.26"/>
        <path d="M415.21 958.51c8.81-23.5 6.08-71.63 6.08-71.63-3.66 47-29.02 70.1-29.02 70.1"/>
        <path d="M456.29 956.29c0 0-26.52-21.77-32.58-68.52 0 0-0.26 48.21 9.75 71.23"/>
        <path d="M404.06 957.77c0 0 13.62-20.66 18.45-69.2"/>
      </g>
      <path style="fill:url(#Gradient_4);" d="M423.73 337.05l-21.46 35.03c-1.86 3.04 0.32 6.93 3.89 6.93l0 0 41.71 0c3.51 0 5.7-3.8 3.94-6.83l0 0-20.25-35.03c-0.88-1.51-2.41-2.28-3.95-2.28l0 0c-1.5 0-2.99 0.72-3.88 2.18z"/>
      <path style="fill:url(#Gradient_5);" d="M273.05 178.98c0 97.08 68.93 175.78 153.96 175.79l0 0c85.03 0 153.96-78.7 153.97-175.79l0 0c0-97.08-68.93-175.78-153.97-175.78l0 0c-85.03 0-153.96 78.7-153.96 175.78z"/>
      <path style="fill:url(#Gradient_6);" d="M158.17 425.62l-21.46 35.02c-1.86 3.04 0.32 6.94 3.89 6.94l0 0 41.71 0c3.51 0 5.7-3.8 3.94-6.84l0 0-20.25-35.03c-0.88-1.51-2.41-2.27-3.95-2.27l0 0c-1.5 0-2.99 0.72-3.88 2.18z"/>
      <path style="fill:url(#Gradient_7);opacity:0.95;" d="M7.37 267.55c0 97.08 68.93 175.78 153.97 175.78l0 0c85.03 0 153.96-78.7 153.96-175.78l0 0c0-97.08-68.93-175.78-153.96-175.78l0 0c-85.03 0-153.96 78.7-153.97 175.78z"/>
      <path style="fill:url(#Gradient_8);" d="M663.94 425.62l-21.46 35.02c-1.86 3.04 0.33 6.94 3.89 6.94l0 0 41.71 0c3.51 0 5.7-3.8 3.94-6.84l0 0-20.25-35.03c-0.88-1.51-2.41-2.27-3.95-2.27l0 0c-1.5 0-2.99 0.72-3.88 2.18z"/>
      <path style="fill:url(#Gradient_9);opacity:0.95;" d="M513.14 267.55c0 97.08 68.93 175.78 153.96 175.78l0 0c85.03 0 153.96-78.7 153.97-175.78l0 0c0-97.08-68.93-175.78-153.97-175.78l0 0c-85.03 0-153.96 78.7-153.96 175.78z"/>
      <path style="fill:url(#Gradient_10);" d="M285.46 567.53l-16.21 37.74c-1.41 3.27 1.31 6.82 4.83 6.3l0 0 41.28-5.97c3.47-0.5 5.1-4.58 2.93-7.33l0 0-25.06-31.76c-0.93-1.17-2.25-1.74-3.57-1.74l0 0c-1.72 0-3.42 0.96-4.2 2.76z"/>
      <path style="fill:url(#Gradient_11);;opacity:0.95;" d="M240.79 236.67c-84.15 12.18-141.11 99.94-127.2 196.02l0 0c13.9 96.08 93.39 164.1 177.54 151.92l0 0c84.15-12.18 141.1-99.94 127.21-196.02l0 0c-12.82-88.59-81.41-153.33-158-153.33l0 0c-6.47 0-12.99 0.46-19.55 1.41z"/>
      <path style="fill:url(#Gradient_27);" d="M542.05 569.11l-28.18 29.89c-2.44 2.59-1.1 6.85 2.38 7.59l0 0 40.83 8.54c3.43 0.72 6.36-2.55 5.25-5.88l0 0-12.64-38.43c-0.66-2.01-2.48-3.13-4.35-3.14l0 0c-1.18 0-2.38 0.46-3.29 1.43z"/>
      <path style="fill:url(#Gradient_28);opacity:0.95;" d="M426.83 383.51c-19.89 95.02 31.46 186.18 114.68 203.6l0 0c83.23 17.42 166.82-45.49 186.71-140.52l0 0c19.89-95.02-31.46-186.18-114.68-203.6l0 0c-9.34-1.96-18.68-2.9-27.94-2.89l0 0c-73.25 0-141.11 59.05-158.77 143.41z"/>
      <path style="fill:url(#Gradient_23);opacity:0.7;" d="M126.74 409.71c0 0 29.93-94.86 60.85-110.42 19.92-10.03-4.23-30.39-27.01-14.05-6.7 5.14-12.35 11.69-17.06 18.66-14.36 21.28-19.56 46.01-20.09 71.27l0 0.02c-0.07 11.6 1.32 23.12 3.31 34.52z"/>
      <path style="fill:url(#Gradient_24);opacity:0.7;" d="M30.74 269.01c0 0 34.33-93.36 65.93-107.45 20.37-9.09-2.81-30.55-26.32-15.3 0 0-51.89 32.72-39.61 122.75z"/>
      <path style="fill:url(#Gradient_25);opacity:0.7;" d="M537.49 256.64c0 0 37.96-91.94 70.09-104.8 20.71-8.29-1.61-30.64-25.71-16.31 0 0-53.13 30.67-44.38 121.11z"/>
      <path style="fill:url(#Gradient_26);opacity:0.7;" d="M305.43 154.66c0 0 37.96-91.94 70.09-104.79 20.71-8.28-1.61-30.64-25.71-16.32 0 0-53.13 30.67-44.38 121.11z"/>
      <path style="fill:url(#Gradient_29);opacity:0.7;" d="M454.08 393.82c0 0 44.65-88.88 77.64-99.32 21.27-6.73 0.66-30.67-24.42-18.17 0 0-55.25 26.66-53.22 117.49z"/>

      <path style="fill:url(#Gradient_12);" d="M375.83 907.75l9.08 1.65c-1.21 2.8 0.79 11.89 0.79 11.89l0 0c8.26-15.42 34.5-34.41 33.81-33.91l0 0 0.71-5.79c-24.03 1.57-44.39 26.16-44.39 26.16z"/>
      <path style="fill:url(#Gradient_13);" d="M380.2 872.6c13.6 7.74 40.82 5.99 40.82 5.99l0 0c-22.8-5.81-32.93-7.21-37.4-7.21l0 0c-4.17 0-3.42 1.22-3.42 1.22z"/>
      <path style="fill:url(#Gradient_14);" d="M380.45 890.39c7.74 5.62 42.01-3.08 42.01-3.09l0 0-0.09-10.01c-42.04-1.73-42.31-5.05-42.31-5.05l0 0z"/>
      <g clip-path="url(#Clip_1)" opacity="0.24">
        <path style="fill:url(#Gradient_15);" d="M408.16 886.73c2.63 0.16 5.1-0.27 7.57-1.06 3.52-1.3 2.99-1.72 1.65-1.82l0 0 0.21-2.29c0 0-3 0.5-8.21-0.56 2.01 0.59 4.41 1.58 4.79 2.94-0.02 0-0.03 0-0.03 0 0 0-3.11 3.22-12.86 1.6 2.22 0.78 4.56 0.96 6.88 1.19z"/>
      </g>
      <path style="fill:url(#Gradient_16);" d="M409.38 881c-1.53-0.45-2.83-0.68-2.83-0.68l0 0c1.01 0.28 1.95 0.5 2.83 0.68z"/>
      <path style="fill:url(#Gradient_17);" d="M425.53 887.37c0 0 25.53 18.33 33.88 33.85l0 0c0 0 1.98-9.1 0.76-11.89l0 0 9.08-1.67c0 0-20.4-24.55-44.44-26.08l0 0z"/>
      <path style="fill:url(#Gradient_18);" d="M423.74 878.59c0 0 40.72 9.96 40.43-5.69l0 0c-0.01-0.45 0.33-1.72-3.83-1.73l0 0c-4.58 0-14.62 1.54-36.6 7.42z"/>
      <path style="fill:url(#Gradient_19);" d="M422.39 877.29l-0.07 10.01c0 0 34.28 8.63 42.01 3l0 0-0.11-17.86c0 0-0.29 1.43-41.83 4.85z"/>
      <g clip-path="url(#Clip_2)" opacity="0.24">
        <path style="fill:url(#Gradient_20);" d="M436.63 886.65c2.32-0.16 4.66-0.45 6.88-1.19-9.75 1.64-12.88-1.55-12.88-1.55 0 0-0.01 0.01-0.03 0 0.38-1.36 2.78-2.34 4.78-2.94-5.2 1.07-8.18 0.51-8.18 0.51l0.23 2.22 0.01 0.01c-1.35 0.13-1.9 0.59 1.62 1.88 2.44 0.98 4.99 0.96 7.57 1.06z"/>
      </g>
      <path style="fill:url(#Gradient_21);" d="M435.38 880.98c0.88-0.18 1.83-0.4 2.83-0.69l0 0c0 0-1.3 0.23-2.83 0.69z"/>
      <path style="fill:url(#Gradient_22);" d="M417.09 877.31c0 0-1.77 8.19 0.74 11.61l0 0 9.25-0.01c0 0 2.64-7.59 0.88-11.59l0 0c0 0-4.62-1-7.84-1l0 0c-1.6 0-2.86 0.25-3.03 0.99z"/>
    </symbol>
  </defs>
  
  <use xlink:href="#balloons" />
</svg>