<svg id="mermaid-svg" width="100%" xmlns="http://www.w3.org/2000/svg" xmlns:xlink="http://www.w3.org/1999/xlink" height="727" style="max-width: 450px;" viewBox="-20 -20 450 727"><style>#mermaid-svg{font-family:"trebuchet ms",verdana,arial,sans-serif;font-size:16px;fill:#333;}#mermaid-svg .error-icon{fill:#552222;}#mermaid-svg .error-text{fill:#552222;stroke:#552222;}#mermaid-svg .edge-thickness-normal{stroke-width:2px;}#mermaid-svg .edge-thickness-thick{stroke-width:3.5px;}#mermaid-svg .edge-pattern-solid{stroke-dasharray:0;}#mermaid-svg .edge-pattern-dashed{stroke-dasharray:3;}#mermaid-svg .edge-pattern-dotted{stroke-dasharray:2;}#mermaid-svg .marker{fill:#333333;stroke:#333333;}#mermaid-svg .marker.cross{stroke:#333333;}#mermaid-svg svg{font-family:"trebuchet ms",verdana,arial,sans-serif;font-size:16px;}#mermaid-svg g.classGroup text{fill:#9370DB;fill:#131300;stroke:none;font-family:"trebuchet ms",verdana,arial,sans-serif;font-size:10px;}#mermaid-svg g.classGroup text .title{font-weight:bolder;}#mermaid-svg .classTitle{font-weight:bolder;}#mermaid-svg .node rect,#mermaid-svg .node circle,#mermaid-svg .node ellipse,#mermaid-svg .node polygon,#mermaid-svg .node path{fill:#ECECFF;stroke:#9370DB;stroke-width:1px;}#mermaid-svg .divider{stroke:#9370DB;stroke:1;}#mermaid-svg g.clickable{cursor:pointer;}#mermaid-svg g.classGroup rect{fill:#ECECFF;stroke:#9370DB;}#mermaid-svg g.classGroup line{stroke:#9370DB;stroke-width:1;}#mermaid-svg .classLabel .box{stroke:none;stroke-width:0;fill:#ECECFF;opacity:0.5;}#mermaid-svg .classLabel .label{fill:#9370DB;font-size:10px;}#mermaid-svg .relation{stroke:#333333;stroke-width:1;fill:none;}#mermaid-svg .dashed-line{stroke-dasharray:3;}#mermaid-svg #compositionStart,#mermaid-svg .composition{fill:#333333 !important;stroke:#333333 !important;stroke-width:1;}#mermaid-svg #compositionEnd,#mermaid-svg .composition{fill:#333333 !important;stroke:#333333 !important;stroke-width:1;}#mermaid-svg #dependencyStart,#mermaid-svg .dependency{fill:#333333 !important;stroke:#333333 !important;stroke-width:1;}#mermaid-svg #dependencyStart,#mermaid-svg .dependency{fill:#333333 !important;stroke:#333333 !important;stroke-width:1;}#mermaid-svg #extensionStart,#mermaid-svg .extension{fill:#333333 !important;stroke:#333333 !important;stroke-width:1;}#mermaid-svg #extensionEnd,#mermaid-svg .extension{fill:#333333 !important;stroke:#333333 !important;stroke-width:1;}#mermaid-svg #aggregationStart,#mermaid-svg .aggregation{fill:#ECECFF !important;stroke:#333333 !important;stroke-width:1;}#mermaid-svg #aggregationEnd,#mermaid-svg .aggregation{fill:#ECECFF !important;stroke:#333333 !important;stroke-width:1;}#mermaid-svg .edgeTerminals{font-size:11px;}#mermaid-svg:root{--mermaid-font-family:"trebuchet ms",verdana,arial,sans-serif;}</style><g/><defs><marker id="extensionStart" class="extension" refX="0" refY="7" markerWidth="190" markerHeight="240" orient="auto"><path d="M 1,7 L18,13 V 1 Z"/></marker></defs><defs><marker id="extensionEnd" refX="19" refY="7" markerWidth="20" markerHeight="28" orient="auto"><path d="M 1,1 V 13 L18,7 Z"/></marker></defs><defs><marker id="compositionStart" class="extension" refX="0" refY="7" markerWidth="190" markerHeight="240" orient="auto"><path d="M 18,7 L9,13 L1,7 L9,1 Z"/></marker></defs><defs><marker id="compositionEnd" refX="19" refY="7" markerWidth="20" markerHeight="28" orient="auto"><path d="M 18,7 L9,13 L1,7 L9,1 Z"/></marker></defs><defs><marker id="aggregationStart" class="extension" refX="0" refY="7" markerWidth="190" markerHeight="240" orient="auto"><path d="M 18,7 L9,13 L1,7 L9,1 Z"/></marker></defs><defs><marker id="aggregationEnd" refX="19" refY="7" markerWidth="20" markerHeight="28" orient="auto"><path d="M 18,7 L9,13 L1,7 L9,1 Z"/></marker></defs><defs><marker id="dependencyStart" class="extension" refX="0" refY="7" markerWidth="190" markerHeight="240" orient="auto"><path d="M 5,7 L9,13 L1,7 L9,1 Z"/></marker></defs><defs><marker id="dependencyEnd" refX="19" refY="7" markerWidth="20" markerHeight="28" orient="auto"><path d="M 18,7 L9,13 L14,7 L9,1 Z"/></marker></defs><g id="classid-trips-0" class="classGroup" transform="translate(146.5,384 )"><rect x="0" y="0" width="118" height="122" class=" "/><text y="15" x="0"><tspan class="title" x="48">trips</tspan></text><line x1="0" y1="22" y2="22" x2="118"/><text x="5" y="32" fill="white" class="classText"><tspan x="5">route_id</tspan><tspan x="5" dy="10">service_id</tspan><tspan x="5" dy="10">trip_id</tspan><tspan x="5" dy="10">trip_headsign</tspan><tspan x="5" dy="10">trip_short_name</tspan><tspan x="5" dy="10">direction_id</tspan><tspan x="5" dy="10">shape_id</tspan><tspan x="5" dy="10">wheelchair_accessible</tspan><tspan x="5" dy="10">bikes_allowed</tspan></text><line x1="0" y1="118" y2="118" x2="118"/><text x="5" y="133" fill="white" class="classText"/></g><g id="classid-calendar-1" class="classGroup" transform="translate(171.5,556 )"><rect x="0" y="0" width="68" height="131" class=" "/><text y="15" x="0"><tspan class="title" x="12.5">calendar</tspan></text><line x1="0" y1="21" y2="21" x2="68"/><text x="5" y="31" fill="white" class="classText"><tspan x="5">service_id</tspan><tspan x="5" dy="10">monday</tspan><tspan x="5" dy="10">tuesday</tspan><tspan x="5" dy="10">wednesday</tspan><tspan x="5" dy="10">thursday</tspan><tspan x="5" dy="10">friday</tspan><tspan x="5" dy="10">saturday</tspan><tspan x="5" dy="10">sunday</tspan><tspan x="5" dy="10">start_date</tspan><tspan x="5" dy="10">end_date</tspan></text><line x1="0" y1="127" y2="127" x2="68"/><text x="5" y="142" fill="white" class="classText"/></g><g id="classid-Routes-2" class="classGroup" transform="translate(0,227.5 )"><rect x="0" y="0" width="100" height="101" class=" "/><text y="15" x="0"><tspan class="title" x="33">Routes</tspan></text><line x1="0" y1="21" y2="21" x2="100"/><text x="5" y="31" fill="white" class="classText"><tspan x="5">route_id</tspan><tspan x="5" dy="10">agency_id</tspan><tspan x="5" dy="10">route_short_name</tspan><tspan x="5" dy="10">route_desc</tspan><tspan x="5" dy="10">route_type</tspan><tspan x="5" dy="10">route_url</tspan><tspan x="5" dy="10">route_text_color</tspan></text><line x1="0" y1="97" y2="97" x2="100"/><text x="5" y="112" fill="white" class="classText"/></g><g id="classid-shapes-3" class="classGroup" transform="translate(150,237 )"><rect x="0" y="0" width="111" height="82" class=" "/><text y="15" x="0"><tspan class="title" x="37.5">shapes</tspan></text><line x1="0" y1="22" y2="22" x2="111"/><text x="5" y="32" fill="white" class="classText"><tspan x="5">shape_id</tspan><tspan x="5" dy="10">shape_pt_lat</tspan><tspan x="5" dy="10">shape_pt_lon</tspan><tspan x="5" dy="10">shape_pt_sequence</tspan><tspan x="5" dy="10">shape_dist_traveled</tspan></text><line x1="0" y1="78" y2="78" x2="111"/><text x="5" y="93" fill="white" class="classText"/></g><g id="classid-stop_times-4" class="classGroup" transform="translate(311,222 )"><rect x="0" y="0" width="87" height="112" class=" "/><text y="15" x="0"><tspan class="title" x="16.5">stop_times</tspan></text><line x1="0" y1="22" y2="22" x2="87"/><text x="5" y="32" fill="white" class="classText"><tspan x="5">trip_id</tspan><tspan x="5" dy="10">arrival_time</tspan><tspan x="5" dy="10">departure_time</tspan><tspan x="5" dy="10">stop_id</tspan><tspan x="5" dy="10">stop_sequence</tspan><tspan x="5" dy="10">stop_headsign</tspan><tspan x="5" dy="10">pickup_type</tspan><tspan x="5" dy="10">drop_off_type</tspan></text><line x1="0" y1="108" y2="108" x2="87"/><text x="5" y="123" fill="white" class="classText"/></g><g id="classid-stops-5" class="classGroup" transform="translate(299,0 )"><rect x="0" y="0" width="111" height="172" class=" "/><text y="15" x="0"><tspan class="title" x="42">stops</tspan></text><line x1="0" y1="22" y2="22" x2="111"/><text x="5" y="32" fill="white" class="classText"><tspan x="5">stop_id</tspan><tspan x="5" dy="10">stop_code</tspan><tspan x="5" dy="10">stop_name</tspan><tspan x="5" dy="10">stop_desc</tspan><tspan x="5" dy="10">stop_lat</tspan><tspan x="5" dy="10">stop_lon</tspan><tspan x="5" dy="10">zone_id</tspan><tspan x="5" dy="10">stop_url</tspan><tspan x="5" dy="10">location_type</tspan><tspan x="5" dy="10">parent_station</tspan><tspan x="5" dy="10">stop_timezone</tspan><tspan x="5" dy="10">wheelchair_boarding</tspan><tspan x="5" dy="10">level_id</tspan><tspan x="5" dy="10">platform_code</tspan></text><line x1="0" y1="168" y2="168" x2="111"/><text x="5" y="183" fill="white" class="classText"/></g><g id="classid-Agency-6" class="classGroup" transform="translate(1.5,30 )"><rect x="0" y="0" width="97" height="112" class=" "/><text y="15" x="0"><tspan class="title" x="30">Agency</tspan></text><line x1="0" y1="22" y2="22" x2="97"/><text x="5" y="32" fill="white" class="classText"><tspan x="5">Agency_id</tspan><tspan x="5" dy="10">agency_name</tspan><tspan x="5" dy="10">agency_url</tspan><tspan x="5" dy="10">agency_timezone</tspan><tspan x="5" dy="10">agency_lang</tspan><tspan x="5" dy="10">agency_phone</tspan><tspan x="5" dy="10">agency_fare_url</tspan><tspan x="5" dy="10">agency_fare_url</tspan></text><line x1="0" y1="108" y2="108" x2="97"/><text x="5" y="123" fill="white" class="classText"/></g><path d="M205.5,506L205.5,510.1666666666667C205.5,514.3333333333334,205.5,522.6666666666666,205.5,531C205.5,539.3333333333334,205.5,547.6666666666666,205.5,551.8333333333334L205.5,556" id="edge0" class="relation" marker-end="url(#extensionEnd)"/><path d="M50,328.5L50,333.5833333333333C50,338.6666666666667,50,348.8333333333333,66.08333333333333,362.811629153269C82.16666666666667,376.78992497320473,114.33333333333333,394.57984994640947,130.41666666666666,403.4748124330118L146.5,412.36977491961414" id="edge1" class="relation" marker-start="url(#extensionStart)"/><path d="M205.5,319L205.5,325.6666666666667C205.5,332.3333333333333,205.5,345.6666666666667,205.5,356.5C205.5,367.3333333333333,205.5,375.6666666666667,205.5,379.8333333333333L205.5,384" id="edge2" class="relation" marker-start="url(#extensionStart)"/><path d="M354.5,334L354.5,338.1666666666667C354.5,342.3333333333333,354.5,350.6666666666667,339.5,363.4910514541387C324.5,376.31543624161077,294.5,393.6308724832215,279.5,402.28859060402687L264.5,410.9463087248322" id="edge3" class="relation" marker-start="url(#extensionStart)"/><path d="M354.5,172L354.5,176.16666666666666C354.5,180.33333333333334,354.5,188.66666666666666,354.5,197C354.5,205.33333333333334,354.5,213.66666666666666,354.5,217.83333333333334L354.5,222" id="edge4" class="relation" marker-start="url(#extensionStart)"/><path d="M50,142L50,151.16666666666666C50,160.33333333333334,50,178.66666666666666,50,192.91666666666666C50,207.16666666666666,50,217.33333333333334,50,222.41666666666666L50,227.5" id="edge5" class="relation" marker-start="url(#extensionStart)"/></svg>